<?xml version="1.0" encoding="utf-8"?>
<!-- Generator: Adobe Illustrator 25.4.1, SVG Export Plug-In . SVG Version: 6.00 Build 0)  -->
<svg version="1.1" id="Layer_1" xmlns="http://www.w3.org/2000/svg" xmlns:xlink="http://www.w3.org/1999/xlink" x="0px" y="0px"
	 viewBox="0 0 175.4 46" style="enable-background:new 0 0 175.4 46;" xml:space="preserve">
<style type="text/css">
	.st0{clip-path:url(#SVGID_00000128471569455106066570000014315815548558236316_);}
</style>
<g id="그룹_4" transform="translate(0 0)">
	<g>
		<defs>
			<rect id="SVGID_1_" y="21" width="120.7" height="25"/>
		</defs>
		<clipPath id="SVGID_00000119833383950819634390000011714226115372063373_">
			<use xlink:href="#SVGID_1_"  style="overflow:visible;"/>
		</clipPath>
		
			<g id="그룹_3" transform="translate(0 0)" style="clip-path:url(#SVGID_00000119833383950819634390000011714226115372063373_);">
			<path id="패스_6" d="M82.2,21.3c3.8-0.5,6,1.3,6,5c0,6.1,0,12.2,0,18.3c0,1.4-0.5,1.7-1.6,1.3c-0.4-0.1-0.9-0.2-1.3-0.3
				c-2-0.3-3.4-2.1-3.2-4.1C82,39.5,82,37.6,82,35.6c0-1,0-2.1,0-3.1c0.1-3.2,0.1-6.4,0.2-9.6L82.2,21.3"/>
			<path id="패스_7" d="M82.2,21.3l-0.1,1.6c-0.3-0.1-0.5,0.1-0.7,0.3c-2.9,2.9-5.8,5.8-8.7,8.7c-0.2,0.2-0.4,0.4-0.3,0.7
				c-1.3,0.7-2.4,1.7-3.1,3c-1.1,0.1-2.1,0-3.1-0.3c-0.9-0.5-0.3-0.9,0-1.4c3-3,6.1-6,9.1-9c0.4-0.4,0.8-0.8,1.2-1.2
				C78,22,79.7,20.6,82.2,21.3"/>
			<path id="패스_8" d="M37.4,21.4c-1.8-0.2-3.7-0.3-5.6-0.2c-1.4,0-2.8-0.1-4.2,0c-4.2,0.3-6.8,2.8-6.5,6.9c0.1,1.5,0,3.1,0,4.6
				c-0.2,3.1,2.1,5.8,5.2,6.1c3.6,0.5,7.4,0.5,11,0c3.1-0.3,5.4-3,5.2-6.1c0-1.7,0-3.5,0-5.2C42.7,24.5,40.4,21.8,37.4,21.4
				 M36.3,33.6c0,1.3-1,2.4-2.3,2.5c-0.1,0-0.1,0-0.2,0c-1.4,0.1-2.7,0-4.1,0c-1.3,0.1-2.4-0.9-2.5-2.2c0-0.1,0-0.2,0-0.3
				c-0.1-2.3-0.1-4.5,0-6.8c-0.1-1.3,1-2.5,2.3-2.5c0.1,0,0.2,0,0.3,0c1.3,0,2.5,0,3.8,0c1.4-0.1,2.6,0.9,2.7,2.3c0,0.1,0,0.2,0,0.3
				c0,1.1,0,2.2,0,3.3C36.4,31.3,36.4,32.4,36.3,33.6"/>
			<path id="패스_9" d="M66.2,35.3c-0.9-0.5-0.3-0.9,0-1.4c0-2.7,0-5.4,0-8.2c0.1-1.4-0.5-2.7-1.6-3.5c-2.1-1.5-4.9-1.3-6.9,0.3
				c-2.1,1.7-2.3,1.7-4.4,0c-1.9-1.6-4.7-1.7-6.8-0.3c-1,0.5-1.6,1.6-1.7,2.7c0,4.6,0,9.2,0,13.8c0,0.3,0,0.6,0.4,0.7
				c2.6,0.5,5.1-1.2,5.5-3.8c0-0.2,0.1-0.4,0.1-0.6c0-3.1,0-6.3,0-9.4c0-1,0.3-1.2,1.1-0.6c0.6,0.4,1.3,0.9,1.9,1.3
				c1,0.8,2.4,0.8,3.4,0c0.6-0.4,1.2-0.9,1.8-1.3c0.7-0.5,1.2-0.6,1.1,0.6c-0.1,2.9,0.1,5.7-0.1,8.6c-0.2,3.8,2,4.8,4.9,5.2
				c1,0.1,1.4-0.2,1.3-1.2C66.2,37.1,66.2,36.2,66.2,35.3"/>
			<path id="패스_10" d="M9,24.3c2.1,0,4.3,0,6.4,0c1.4,0.1,2.7-0.8,3.1-2.1c0.3-0.6,0.3-1-0.6-1c-1.9,0.1-3.7,0-5.6,0
				c0,0,0,0,0,0c-2,0-4,0-6,0c-0.5,0-0.9,0.1-1.3,0.2c-3,0.4-5.1,3-5,6c0,1.7,0,3.4,0,5c0,3.7,1.9,6,5.6,6.4
				c4.1,0.5,8.3,0.1,12.4,0.2c0.7,0,0.7-0.3,0.6-0.8c-0.3-1.4-1.6-2.3-3-2.3c-2.2,0-4.4,0-6.5,0c-1.9,0-2.9-0.9-2.9-2.8
				c0-2,0-4.1,0-6.1C6,25.7,7,24.4,8.4,24.3C8.6,24.2,8.8,24.2,9,24.3"/>
			<path id="패스_11" d="M96.5,21.2c-2.2-0.7-5.6,1.5-5.7,3.8c-0.1,2.2,0,4.5,0,6.7h0c0,2.2,0,4.4,0,6.5c0,0.4-0.2,0.8,0.4,1
				c2.1,0.7,5.7-1.5,5.7-3.8c0.1-4.5,0-9,0-13.5C96.9,21.6,97,21.3,96.5,21.2"/>
			<path id="패스_12" d="M120.7,21.9c0-0.3,0-0.6-0.4-0.7c-2.4-0.7-5.6,1.5-5.7,4c0,2.4-0.2,4.8-0.1,7.2c0.2,0.7,0.1,1.5-0.2,2.2
				c-1.3-1.4-2.4-2.9-3.2-4.7c-1.2-2.5-2.6-5-4.1-7.3c-0.5-0.6-0.9-1.4-1.9-1.3c-1.3-0.1-2.6,0.1-3.7,0.6c-1.3,0.5-2.2,1.8-2.2,3.2
				c-0.1,4.5,0,9,0,13.5c0,0.4,0.1,0.6,0.6,0.7c2.6,0.5,5.1-1.3,5.5-3.9c0.1-0.3,0.1-0.6,0.1-0.9c0-2.8,0-5.5,0-8.3
				c0.7,0.2,1,0.8,1.3,1.3c0.7,1.1,1.3,2.2,1.8,3.3c1.1,2.3,2.3,4.5,3.7,6.6c0.6,0.9,1.2,1.9,2.5,1.8c1.3,0.1,2.6-0.1,3.8-0.7
				c1.2-0.5,2.1-1.6,2.1-3C120.7,31,120.7,26.4,120.7,21.9"/>
			<path id="패스_13" d="M69.4,35.6c0.7-1.3,1.8-2.3,3.1-3c3.2-0.2,6.3-0.1,9.5-0.1v3.1L69.4,35.6"/>
		</g>
	</g>
</g>
<path id="패스_29" d="M157.6,0c0,2.3,0,4.4,0,6.5c-0.1,7,0.4,13.9,1.3,20.8c0.1,0.5,0,0.7-0.5,0.9c-10.7,3.3-20,9.1-28.6,16
	c-0.2,0.2-0.5,0.4-0.9,0.4C136.2,28.4,145.9,13.4,157.6,0z"/>
<path id="패스_30" d="M129.9,46c8.5-6.7,18.1-11.9,28.4-15.2c2.5-0.8,5.1-1.4,7.7-1.9c0.7-0.1,1.1-0.1,0.9,0.8c-0.2,1-0.4,2-0.5,3
	c-0.1,0.5-0.2,0.7-0.7,0.7c-12.3,1.7-24.1,5.9-34.8,12.3C130.6,46,130.2,46.1,129.9,46z"/>
<path id="패스_31" d="M133.5,45.6c8.8-4.6,18.2-7.9,28-9.5c3-0.5,6-0.8,9-1c0.6,0,0.7,0.2,0.6,0.7c0,0,0,0.1,0,0.1
	c-0.3,1.1-0.3,2.5-1,3.2s-2.1,0.2-3.2,0.2c-11.1,0.3-22,2.3-32.4,6.2C134.2,45.6,133.9,45.8,133.5,45.6z"/>
<path id="패스_32" d="M139.2,45.1c8-2.3,16.2-3.5,24.5-3.6c3.6-0.1,7.2,0,10.7,0.2c0.8,0.1,0.8,0.3,0.5,0.9
	c-0.4,0.9-0.6,2.1-1.3,2.6c-0.7,0.5-1.9-0.1-2.9-0.2c-8.1-1-16.3-1.1-24.5-0.5C143.8,44.6,141.5,44.9,139.2,45.1z"/>
</svg>
